<mxfile host="app.diagrams.net" modified="2022-11-28T02:37:46.283Z" agent="5.0 (Windows NT 10.0; Win64; x64) AppleWebKit/537.36 (KHTML, like Gecko) Chrome/107.0.0.0 Safari/537.36 Edg/107.0.1418.56" etag="37D9GPvB5Ks0WKxuKOPL" version="20.5.1" type="github">
  <diagram id="9_yqHybyMiGnAdQsDZEo" name="Page-1">
    <mxGraphModel dx="1609" dy="705" grid="1" gridSize="10" guides="1" tooltips="1" connect="1" arrows="1" fold="1" page="1" pageScale="1" pageWidth="1600" pageHeight="900" math="0" shadow="0">
      <root>
        <mxCell id="0" />
        <mxCell id="1" parent="0" />
        <mxCell id="m5ZPHYnucMxyvpvBuAuQ-27" value="Invoice" style="shape=table;startSize=40;container=1;collapsible=0;childLayout=tableLayout;fontStyle=1;align=center;fontSize=16;" vertex="1" parent="1">
          <mxGeometry x="320" y="80" width="880" height="80" as="geometry" />
        </mxCell>
        <mxCell id="m5ZPHYnucMxyvpvBuAuQ-36" value="" style="shape=tableRow;horizontal=0;startSize=0;swimlaneHead=0;swimlaneBody=0;top=0;left=0;bottom=0;right=0;collapsible=0;dropTarget=0;fillColor=none;points=[[0,0.5],[1,0.5]];portConstraint=eastwest;" vertex="1" parent="m5ZPHYnucMxyvpvBuAuQ-27">
          <mxGeometry y="40" width="880" height="40" as="geometry" />
        </mxCell>
        <mxCell id="m5ZPHYnucMxyvpvBuAuQ-46" value="&lt;u&gt;OrderID&lt;/u&gt;" style="shape=partialRectangle;html=1;whiteSpace=wrap;connectable=0;fillColor=none;top=0;left=0;bottom=0;right=0;overflow=hidden;" vertex="1" parent="m5ZPHYnucMxyvpvBuAuQ-36">
          <mxGeometry width="60" height="40" as="geometry">
            <mxRectangle width="60" height="40" as="alternateBounds" />
          </mxGeometry>
        </mxCell>
        <mxCell id="m5ZPHYnucMxyvpvBuAuQ-37" value="OrderDate" style="shape=partialRectangle;html=1;whiteSpace=wrap;connectable=0;fillColor=none;top=0;left=0;bottom=0;right=0;overflow=hidden;" vertex="1" parent="m5ZPHYnucMxyvpvBuAuQ-36">
          <mxGeometry x="60" width="80" height="40" as="geometry">
            <mxRectangle width="80" height="40" as="alternateBounds" />
          </mxGeometry>
        </mxCell>
        <mxCell id="m5ZPHYnucMxyvpvBuAuQ-38" value="CustomerID" style="shape=partialRectangle;html=1;whiteSpace=wrap;connectable=0;fillColor=none;top=0;left=0;bottom=0;right=0;overflow=hidden;" vertex="1" parent="m5ZPHYnucMxyvpvBuAuQ-36">
          <mxGeometry x="140" width="80" height="40" as="geometry">
            <mxRectangle width="80" height="40" as="alternateBounds" />
          </mxGeometry>
        </mxCell>
        <mxCell id="m5ZPHYnucMxyvpvBuAuQ-39" value="CustomerName" style="shape=partialRectangle;html=1;whiteSpace=wrap;connectable=0;fillColor=none;top=0;left=0;bottom=0;right=0;overflow=hidden;" vertex="1" parent="m5ZPHYnucMxyvpvBuAuQ-36">
          <mxGeometry x="220" width="100" height="40" as="geometry">
            <mxRectangle width="100" height="40" as="alternateBounds" />
          </mxGeometry>
        </mxCell>
        <mxCell id="m5ZPHYnucMxyvpvBuAuQ-45" value="CustomerAddress" style="shape=partialRectangle;html=1;whiteSpace=wrap;connectable=0;fillColor=none;top=0;left=0;bottom=0;right=0;overflow=hidden;" vertex="1" parent="m5ZPHYnucMxyvpvBuAuQ-36">
          <mxGeometry x="320" width="120" height="40" as="geometry">
            <mxRectangle width="120" height="40" as="alternateBounds" />
          </mxGeometry>
        </mxCell>
        <mxCell id="m5ZPHYnucMxyvpvBuAuQ-47" value="&lt;u&gt;ProductID&lt;/u&gt;" style="shape=partialRectangle;html=1;whiteSpace=wrap;connectable=0;fillColor=none;top=0;left=0;bottom=0;right=0;overflow=hidden;" vertex="1" parent="m5ZPHYnucMxyvpvBuAuQ-36">
          <mxGeometry x="440" width="70" height="40" as="geometry">
            <mxRectangle width="70" height="40" as="alternateBounds" />
          </mxGeometry>
        </mxCell>
        <mxCell id="m5ZPHYnucMxyvpvBuAuQ-48" value="ProductDescription" style="shape=partialRectangle;html=1;whiteSpace=wrap;connectable=0;fillColor=none;top=0;left=0;bottom=0;right=0;overflow=hidden;" vertex="1" parent="m5ZPHYnucMxyvpvBuAuQ-36">
          <mxGeometry x="510" width="120" height="40" as="geometry">
            <mxRectangle width="120" height="40" as="alternateBounds" />
          </mxGeometry>
        </mxCell>
        <mxCell id="m5ZPHYnucMxyvpvBuAuQ-49" value="ProductStandardPrice" style="shape=partialRectangle;html=1;whiteSpace=wrap;connectable=0;fillColor=none;top=0;left=0;bottom=0;right=0;overflow=hidden;" vertex="1" parent="m5ZPHYnucMxyvpvBuAuQ-36">
          <mxGeometry x="630" width="140" height="40" as="geometry">
            <mxRectangle width="140" height="40" as="alternateBounds" />
          </mxGeometry>
        </mxCell>
        <mxCell id="m5ZPHYnucMxyvpvBuAuQ-50" value="OrderedQuantity" style="shape=partialRectangle;html=1;whiteSpace=wrap;connectable=0;fillColor=none;top=0;left=0;bottom=0;right=0;overflow=hidden;" vertex="1" parent="m5ZPHYnucMxyvpvBuAuQ-36">
          <mxGeometry x="770" width="110" height="40" as="geometry">
            <mxRectangle width="110" height="40" as="alternateBounds" />
          </mxGeometry>
        </mxCell>
        <mxCell id="m5ZPHYnucMxyvpvBuAuQ-51" value="&lt;b&gt;&lt;font style=&quot;font-size: 18px;&quot;&gt;1NF&lt;/font&gt;&lt;/b&gt;" style="text;html=1;align=center;verticalAlign=middle;resizable=0;points=[];autosize=1;strokeColor=none;fillColor=none;" vertex="1" parent="1">
          <mxGeometry x="30" y="100" width="60" height="40" as="geometry" />
        </mxCell>
        <mxCell id="m5ZPHYnucMxyvpvBuAuQ-53" value="ProductInfo" style="shape=table;startSize=40;container=1;collapsible=0;childLayout=tableLayout;fontStyle=1;align=center;fontSize=16;" vertex="1" parent="1">
          <mxGeometry x="720" y="360" width="320" height="80" as="geometry" />
        </mxCell>
        <mxCell id="m5ZPHYnucMxyvpvBuAuQ-54" value="" style="shape=tableRow;horizontal=0;startSize=0;swimlaneHead=0;swimlaneBody=0;top=0;left=0;bottom=0;right=0;collapsible=0;dropTarget=0;fillColor=none;points=[[0,0.5],[1,0.5]];portConstraint=eastwest;fontSize=12;" vertex="1" parent="m5ZPHYnucMxyvpvBuAuQ-53">
          <mxGeometry y="40" width="320" height="40" as="geometry" />
        </mxCell>
        <mxCell id="m5ZPHYnucMxyvpvBuAuQ-55" value="&lt;font style=&quot;font-size: 12px;&quot;&gt;&lt;u&gt;ProductID&lt;/u&gt;&lt;/font&gt;" style="shape=partialRectangle;html=1;whiteSpace=wrap;connectable=0;fillColor=none;top=0;left=0;bottom=0;right=0;overflow=hidden;fontSize=12;" vertex="1" parent="m5ZPHYnucMxyvpvBuAuQ-54">
          <mxGeometry width="70" height="40" as="geometry">
            <mxRectangle width="70" height="40" as="alternateBounds" />
          </mxGeometry>
        </mxCell>
        <mxCell id="m5ZPHYnucMxyvpvBuAuQ-56" value="ProductDescription" style="shape=partialRectangle;html=1;whiteSpace=wrap;connectable=0;fillColor=none;top=0;left=0;bottom=0;right=0;overflow=hidden;fontSize=12;" vertex="1" parent="m5ZPHYnucMxyvpvBuAuQ-54">
          <mxGeometry x="70" width="120" height="40" as="geometry">
            <mxRectangle width="120" height="40" as="alternateBounds" />
          </mxGeometry>
        </mxCell>
        <mxCell id="m5ZPHYnucMxyvpvBuAuQ-57" value="&lt;font style=&quot;font-size: 12px;&quot;&gt;ProductStandardPrice&lt;/font&gt;" style="shape=partialRectangle;html=1;whiteSpace=wrap;connectable=0;fillColor=none;top=0;left=0;bottom=0;right=0;overflow=hidden;fontSize=12;" vertex="1" parent="m5ZPHYnucMxyvpvBuAuQ-54">
          <mxGeometry x="190" width="130" height="40" as="geometry">
            <mxRectangle width="130" height="40" as="alternateBounds" />
          </mxGeometry>
        </mxCell>
        <mxCell id="m5ZPHYnucMxyvpvBuAuQ-66" value="InvoiceInfo" style="shape=table;startSize=40;container=1;collapsible=0;childLayout=tableLayout;fontStyle=1;align=center;fontSize=16;" vertex="1" parent="1">
          <mxGeometry x="1120" y="360" width="240" height="80" as="geometry" />
        </mxCell>
        <mxCell id="m5ZPHYnucMxyvpvBuAuQ-67" value="" style="shape=tableRow;horizontal=0;startSize=0;swimlaneHead=0;swimlaneBody=0;top=0;left=0;bottom=0;right=0;collapsible=0;dropTarget=0;fillColor=none;points=[[0,0.5],[1,0.5]];portConstraint=eastwest;fontSize=12;" vertex="1" parent="m5ZPHYnucMxyvpvBuAuQ-66">
          <mxGeometry y="40" width="240" height="40" as="geometry" />
        </mxCell>
        <mxCell id="m5ZPHYnucMxyvpvBuAuQ-68" value="&lt;u&gt;OrderID&lt;/u&gt;" style="shape=partialRectangle;html=1;whiteSpace=wrap;connectable=0;fillColor=none;top=0;left=0;bottom=0;right=0;overflow=hidden;fontSize=12;" vertex="1" parent="m5ZPHYnucMxyvpvBuAuQ-67">
          <mxGeometry width="60" height="40" as="geometry">
            <mxRectangle width="60" height="40" as="alternateBounds" />
          </mxGeometry>
        </mxCell>
        <mxCell id="m5ZPHYnucMxyvpvBuAuQ-69" value="&lt;u&gt;ProductID&lt;/u&gt;" style="shape=partialRectangle;html=1;whiteSpace=wrap;connectable=0;fillColor=none;top=0;left=0;bottom=0;right=0;overflow=hidden;fontSize=12;" vertex="1" parent="m5ZPHYnucMxyvpvBuAuQ-67">
          <mxGeometry x="60" width="70" height="40" as="geometry">
            <mxRectangle width="70" height="40" as="alternateBounds" />
          </mxGeometry>
        </mxCell>
        <mxCell id="m5ZPHYnucMxyvpvBuAuQ-70" value="OrderedQuantity" style="shape=partialRectangle;html=1;whiteSpace=wrap;connectable=0;fillColor=none;top=0;left=0;bottom=0;right=0;overflow=hidden;fontSize=12;fontStyle=0" vertex="1" parent="m5ZPHYnucMxyvpvBuAuQ-67">
          <mxGeometry x="130" width="110" height="40" as="geometry">
            <mxRectangle width="110" height="40" as="alternateBounds" />
          </mxGeometry>
        </mxCell>
        <mxCell id="m5ZPHYnucMxyvpvBuAuQ-71" value="OrderInfo" style="shape=table;startSize=40;container=1;collapsible=0;childLayout=tableLayout;fontStyle=1;align=center;fontSize=16;" vertex="1" parent="1">
          <mxGeometry x="200" y="360" width="440" height="80" as="geometry" />
        </mxCell>
        <mxCell id="m5ZPHYnucMxyvpvBuAuQ-72" value="" style="shape=tableRow;horizontal=0;startSize=0;swimlaneHead=0;swimlaneBody=0;top=0;left=0;bottom=0;right=0;collapsible=0;dropTarget=0;fillColor=none;points=[[0,0.5],[1,0.5]];portConstraint=eastwest;" vertex="1" parent="m5ZPHYnucMxyvpvBuAuQ-71">
          <mxGeometry y="40" width="440" height="40" as="geometry" />
        </mxCell>
        <mxCell id="m5ZPHYnucMxyvpvBuAuQ-73" value="OrderID" style="shape=partialRectangle;html=1;whiteSpace=wrap;connectable=0;fillColor=none;top=0;left=0;bottom=0;right=0;overflow=hidden;" vertex="1" parent="m5ZPHYnucMxyvpvBuAuQ-72">
          <mxGeometry width="60" height="40" as="geometry">
            <mxRectangle width="60" height="40" as="alternateBounds" />
          </mxGeometry>
        </mxCell>
        <mxCell id="m5ZPHYnucMxyvpvBuAuQ-74" value="OrderDate" style="shape=partialRectangle;html=1;whiteSpace=wrap;connectable=0;fillColor=none;top=0;left=0;bottom=0;right=0;overflow=hidden;" vertex="1" parent="m5ZPHYnucMxyvpvBuAuQ-72">
          <mxGeometry x="60" width="80" height="40" as="geometry">
            <mxRectangle width="80" height="40" as="alternateBounds" />
          </mxGeometry>
        </mxCell>
        <mxCell id="m5ZPHYnucMxyvpvBuAuQ-75" value="CustomerID" style="shape=partialRectangle;html=1;whiteSpace=wrap;connectable=0;fillColor=none;top=0;left=0;bottom=0;right=0;overflow=hidden;" vertex="1" parent="m5ZPHYnucMxyvpvBuAuQ-72">
          <mxGeometry x="140" width="80" height="40" as="geometry">
            <mxRectangle width="80" height="40" as="alternateBounds" />
          </mxGeometry>
        </mxCell>
        <mxCell id="m5ZPHYnucMxyvpvBuAuQ-76" value="CustomerName" style="shape=partialRectangle;html=1;whiteSpace=wrap;connectable=0;fillColor=none;top=0;left=0;bottom=0;right=0;overflow=hidden;" vertex="1" parent="m5ZPHYnucMxyvpvBuAuQ-72">
          <mxGeometry x="220" width="100" height="40" as="geometry">
            <mxRectangle width="100" height="40" as="alternateBounds" />
          </mxGeometry>
        </mxCell>
        <mxCell id="m5ZPHYnucMxyvpvBuAuQ-77" value="CustomerAddress" style="shape=partialRectangle;html=1;whiteSpace=wrap;connectable=0;fillColor=none;top=0;left=0;bottom=0;right=0;overflow=hidden;" vertex="1" parent="m5ZPHYnucMxyvpvBuAuQ-72">
          <mxGeometry x="320" width="120" height="40" as="geometry">
            <mxRectangle width="120" height="40" as="alternateBounds" />
          </mxGeometry>
        </mxCell>
        <mxCell id="m5ZPHYnucMxyvpvBuAuQ-83" value="&lt;b&gt;&lt;font style=&quot;font-size: 18px;&quot;&gt;2NF&lt;/font&gt;&lt;/b&gt;" style="text;html=1;align=center;verticalAlign=middle;resizable=0;points=[];autosize=1;strokeColor=none;fillColor=none;" vertex="1" parent="1">
          <mxGeometry x="30" y="380" width="60" height="40" as="geometry" />
        </mxCell>
        <mxCell id="m5ZPHYnucMxyvpvBuAuQ-84" value="" style="endArrow=classic;html=1;rounded=0;fontSize=12;" edge="1" parent="1">
          <mxGeometry width="50" height="50" relative="1" as="geometry">
            <mxPoint x="500" y="170" as="sourcePoint" />
            <mxPoint x="420" y="350" as="targetPoint" />
          </mxGeometry>
        </mxCell>
        <mxCell id="m5ZPHYnucMxyvpvBuAuQ-85" value="" style="endArrow=classic;html=1;rounded=0;fontSize=12;" edge="1" parent="1">
          <mxGeometry width="50" height="50" relative="1" as="geometry">
            <mxPoint x="840" y="170" as="sourcePoint" />
            <mxPoint x="880" y="350" as="targetPoint" />
          </mxGeometry>
        </mxCell>
        <mxCell id="m5ZPHYnucMxyvpvBuAuQ-86" value="" style="endArrow=classic;html=1;rounded=0;fontSize=12;" edge="1" parent="1">
          <mxGeometry width="50" height="50" relative="1" as="geometry">
            <mxPoint x="1080" y="170" as="sourcePoint" />
            <mxPoint x="1240" y="350" as="targetPoint" />
          </mxGeometry>
        </mxCell>
        <mxCell id="m5ZPHYnucMxyvpvBuAuQ-88" value="&lt;b&gt;&lt;font style=&quot;font-size: 18px;&quot;&gt;3NF&lt;/font&gt;&lt;/b&gt;" style="text;html=1;align=center;verticalAlign=middle;resizable=0;points=[];autosize=1;strokeColor=none;fillColor=none;" vertex="1" parent="1">
          <mxGeometry x="30" y="660" width="60" height="40" as="geometry" />
        </mxCell>
        <mxCell id="m5ZPHYnucMxyvpvBuAuQ-89" value="ProductInfo" style="shape=table;startSize=40;container=1;collapsible=0;childLayout=tableLayout;fontStyle=1;align=center;fontSize=16;" vertex="1" parent="1">
          <mxGeometry x="800" y="640" width="320" height="80" as="geometry" />
        </mxCell>
        <mxCell id="m5ZPHYnucMxyvpvBuAuQ-90" value="" style="shape=tableRow;horizontal=0;startSize=0;swimlaneHead=0;swimlaneBody=0;top=0;left=0;bottom=0;right=0;collapsible=0;dropTarget=0;fillColor=none;points=[[0,0.5],[1,0.5]];portConstraint=eastwest;fontSize=12;" vertex="1" parent="m5ZPHYnucMxyvpvBuAuQ-89">
          <mxGeometry y="40" width="320" height="40" as="geometry" />
        </mxCell>
        <mxCell id="m5ZPHYnucMxyvpvBuAuQ-91" value="&lt;font style=&quot;font-size: 12px;&quot;&gt;&lt;u&gt;ProductID&lt;/u&gt;&lt;/font&gt;" style="shape=partialRectangle;html=1;whiteSpace=wrap;connectable=0;fillColor=none;top=0;left=0;bottom=0;right=0;overflow=hidden;fontSize=12;" vertex="1" parent="m5ZPHYnucMxyvpvBuAuQ-90">
          <mxGeometry width="70" height="40" as="geometry">
            <mxRectangle width="70" height="40" as="alternateBounds" />
          </mxGeometry>
        </mxCell>
        <mxCell id="m5ZPHYnucMxyvpvBuAuQ-92" value="ProductDescription" style="shape=partialRectangle;html=1;whiteSpace=wrap;connectable=0;fillColor=none;top=0;left=0;bottom=0;right=0;overflow=hidden;fontSize=12;" vertex="1" parent="m5ZPHYnucMxyvpvBuAuQ-90">
          <mxGeometry x="70" width="120" height="40" as="geometry">
            <mxRectangle width="120" height="40" as="alternateBounds" />
          </mxGeometry>
        </mxCell>
        <mxCell id="m5ZPHYnucMxyvpvBuAuQ-93" value="&lt;font style=&quot;font-size: 12px;&quot;&gt;ProductStandardPrice&lt;/font&gt;" style="shape=partialRectangle;html=1;whiteSpace=wrap;connectable=0;fillColor=none;top=0;left=0;bottom=0;right=0;overflow=hidden;fontSize=12;" vertex="1" parent="m5ZPHYnucMxyvpvBuAuQ-90">
          <mxGeometry x="190" width="130" height="40" as="geometry">
            <mxRectangle width="130" height="40" as="alternateBounds" />
          </mxGeometry>
        </mxCell>
        <mxCell id="m5ZPHYnucMxyvpvBuAuQ-94" value="InvoiceInfo" style="shape=table;startSize=40;container=1;collapsible=0;childLayout=tableLayout;fontStyle=1;align=center;fontSize=16;" vertex="1" parent="1">
          <mxGeometry x="1200" y="640" width="240" height="80" as="geometry" />
        </mxCell>
        <mxCell id="m5ZPHYnucMxyvpvBuAuQ-95" value="" style="shape=tableRow;horizontal=0;startSize=0;swimlaneHead=0;swimlaneBody=0;top=0;left=0;bottom=0;right=0;collapsible=0;dropTarget=0;fillColor=none;points=[[0,0.5],[1,0.5]];portConstraint=eastwest;fontSize=12;" vertex="1" parent="m5ZPHYnucMxyvpvBuAuQ-94">
          <mxGeometry y="40" width="240" height="40" as="geometry" />
        </mxCell>
        <mxCell id="m5ZPHYnucMxyvpvBuAuQ-96" value="&lt;u&gt;OrderID&lt;/u&gt;" style="shape=partialRectangle;html=1;whiteSpace=wrap;connectable=0;fillColor=none;top=0;left=0;bottom=0;right=0;overflow=hidden;fontSize=12;" vertex="1" parent="m5ZPHYnucMxyvpvBuAuQ-95">
          <mxGeometry width="60" height="40" as="geometry">
            <mxRectangle width="60" height="40" as="alternateBounds" />
          </mxGeometry>
        </mxCell>
        <mxCell id="m5ZPHYnucMxyvpvBuAuQ-97" value="&lt;u&gt;ProductID&lt;/u&gt;" style="shape=partialRectangle;html=1;whiteSpace=wrap;connectable=0;fillColor=none;top=0;left=0;bottom=0;right=0;overflow=hidden;fontSize=12;" vertex="1" parent="m5ZPHYnucMxyvpvBuAuQ-95">
          <mxGeometry x="60" width="70" height="40" as="geometry">
            <mxRectangle width="70" height="40" as="alternateBounds" />
          </mxGeometry>
        </mxCell>
        <mxCell id="m5ZPHYnucMxyvpvBuAuQ-98" value="OrderedQuantity" style="shape=partialRectangle;html=1;whiteSpace=wrap;connectable=0;fillColor=none;top=0;left=0;bottom=0;right=0;overflow=hidden;fontSize=12;fontStyle=0" vertex="1" parent="m5ZPHYnucMxyvpvBuAuQ-95">
          <mxGeometry x="130" width="110" height="40" as="geometry">
            <mxRectangle width="110" height="40" as="alternateBounds" />
          </mxGeometry>
        </mxCell>
        <mxCell id="m5ZPHYnucMxyvpvBuAuQ-99" value="" style="endArrow=classic;html=1;rounded=0;fontSize=12;" edge="1" parent="1">
          <mxGeometry width="50" height="50" relative="1" as="geometry">
            <mxPoint x="880" y="450" as="sourcePoint" />
            <mxPoint x="960" y="630" as="targetPoint" />
          </mxGeometry>
        </mxCell>
        <mxCell id="m5ZPHYnucMxyvpvBuAuQ-100" value="" style="endArrow=classic;html=1;rounded=0;fontSize=12;" edge="1" parent="1">
          <mxGeometry width="50" height="50" relative="1" as="geometry">
            <mxPoint x="1240" y="450" as="sourcePoint" />
            <mxPoint x="1320" y="630" as="targetPoint" />
          </mxGeometry>
        </mxCell>
        <mxCell id="m5ZPHYnucMxyvpvBuAuQ-101" value="OrderInfo" style="shape=table;startSize=40;container=1;collapsible=0;childLayout=tableLayout;fontStyle=1;align=center;fontSize=16;" vertex="1" parent="1">
          <mxGeometry x="120" y="640" width="220" height="80" as="geometry" />
        </mxCell>
        <mxCell id="m5ZPHYnucMxyvpvBuAuQ-102" value="" style="shape=tableRow;horizontal=0;startSize=0;swimlaneHead=0;swimlaneBody=0;top=0;left=0;bottom=0;right=0;collapsible=0;dropTarget=0;fillColor=none;points=[[0,0.5],[1,0.5]];portConstraint=eastwest;" vertex="1" parent="m5ZPHYnucMxyvpvBuAuQ-101">
          <mxGeometry y="40" width="220" height="40" as="geometry" />
        </mxCell>
        <mxCell id="m5ZPHYnucMxyvpvBuAuQ-103" value="OrderID" style="shape=partialRectangle;html=1;whiteSpace=wrap;connectable=0;fillColor=none;top=0;left=0;bottom=0;right=0;overflow=hidden;" vertex="1" parent="m5ZPHYnucMxyvpvBuAuQ-102">
          <mxGeometry width="60" height="40" as="geometry">
            <mxRectangle width="60" height="40" as="alternateBounds" />
          </mxGeometry>
        </mxCell>
        <mxCell id="m5ZPHYnucMxyvpvBuAuQ-104" value="OrderDate" style="shape=partialRectangle;html=1;whiteSpace=wrap;connectable=0;fillColor=none;top=0;left=0;bottom=0;right=0;overflow=hidden;" vertex="1" parent="m5ZPHYnucMxyvpvBuAuQ-102">
          <mxGeometry x="60" width="80" height="40" as="geometry">
            <mxRectangle width="80" height="40" as="alternateBounds" />
          </mxGeometry>
        </mxCell>
        <mxCell id="m5ZPHYnucMxyvpvBuAuQ-105" value="CustomerID" style="shape=partialRectangle;html=1;whiteSpace=wrap;connectable=0;fillColor=none;top=0;left=0;bottom=0;right=0;overflow=hidden;" vertex="1" parent="m5ZPHYnucMxyvpvBuAuQ-102">
          <mxGeometry x="140" width="80" height="40" as="geometry">
            <mxRectangle width="80" height="40" as="alternateBounds" />
          </mxGeometry>
        </mxCell>
        <mxCell id="m5ZPHYnucMxyvpvBuAuQ-108" value="CustomerInfo" style="shape=table;startSize=40;container=1;collapsible=0;childLayout=tableLayout;fontStyle=1;align=center;fontSize=16;" vertex="1" parent="1">
          <mxGeometry x="420" y="640" width="300" height="80" as="geometry" />
        </mxCell>
        <mxCell id="m5ZPHYnucMxyvpvBuAuQ-109" value="" style="shape=tableRow;horizontal=0;startSize=0;swimlaneHead=0;swimlaneBody=0;top=0;left=0;bottom=0;right=0;collapsible=0;dropTarget=0;fillColor=none;points=[[0,0.5],[1,0.5]];portConstraint=eastwest;" vertex="1" parent="m5ZPHYnucMxyvpvBuAuQ-108">
          <mxGeometry y="40" width="300" height="40" as="geometry" />
        </mxCell>
        <mxCell id="m5ZPHYnucMxyvpvBuAuQ-112" value="CustomerID" style="shape=partialRectangle;html=1;whiteSpace=wrap;connectable=0;fillColor=none;top=0;left=0;bottom=0;right=0;overflow=hidden;" vertex="1" parent="m5ZPHYnucMxyvpvBuAuQ-109">
          <mxGeometry width="80" height="40" as="geometry">
            <mxRectangle width="80" height="40" as="alternateBounds" />
          </mxGeometry>
        </mxCell>
        <mxCell id="m5ZPHYnucMxyvpvBuAuQ-113" value="CustomerName" style="shape=partialRectangle;html=1;whiteSpace=wrap;connectable=0;fillColor=none;top=0;left=0;bottom=0;right=0;overflow=hidden;" vertex="1" parent="m5ZPHYnucMxyvpvBuAuQ-109">
          <mxGeometry x="80" width="100" height="40" as="geometry">
            <mxRectangle width="100" height="40" as="alternateBounds" />
          </mxGeometry>
        </mxCell>
        <mxCell id="m5ZPHYnucMxyvpvBuAuQ-114" value="CustomerAddress" style="shape=partialRectangle;html=1;whiteSpace=wrap;connectable=0;fillColor=none;top=0;left=0;bottom=0;right=0;overflow=hidden;" vertex="1" parent="m5ZPHYnucMxyvpvBuAuQ-109">
          <mxGeometry x="180" width="120" height="40" as="geometry">
            <mxRectangle width="120" height="40" as="alternateBounds" />
          </mxGeometry>
        </mxCell>
        <mxCell id="m5ZPHYnucMxyvpvBuAuQ-115" value="" style="endArrow=classic;html=1;rounded=0;fontSize=12;" edge="1" parent="1">
          <mxGeometry width="50" height="50" relative="1" as="geometry">
            <mxPoint x="280" y="450" as="sourcePoint" />
            <mxPoint x="230" y="630" as="targetPoint" />
          </mxGeometry>
        </mxCell>
        <mxCell id="m5ZPHYnucMxyvpvBuAuQ-116" value="" style="endArrow=classic;html=1;rounded=0;fontSize=12;" edge="1" parent="1">
          <mxGeometry width="50" height="50" relative="1" as="geometry">
            <mxPoint x="520" y="450" as="sourcePoint" />
            <mxPoint x="570" y="630" as="targetPoint" />
          </mxGeometry>
        </mxCell>
      </root>
    </mxGraphModel>
  </diagram>
</mxfile>
